<?xml version="1.0" encoding="UTF-8"?>
<svg width="1010px" height="1010px" viewBox="0 0 1010 1010" version="1.1" xmlns="http://www.w3.org/2000/svg" xmlns:xlink="http://www.w3.org/1999/xlink">
    <!-- Generator: Sketch 52.5 (67469) - http://www.bohemiancoding.com/sketch -->
    <title>iconfinder_coffee-heart_2903268</title>
    <desc>Created with Sketch.</desc>
    <defs>
        <linearGradient x1="7.61463333%" y1="33.792982%" x2="94.6808496%" y2="82.5125505%" id="linearGradient-1">
            <stop stop-color="#FFFFFF" stop-opacity="0.2" offset="0%"></stop>
            <stop stop-color="#FFFFFF" stop-opacity="0" offset="100%"></stop>
        </linearGradient>
    </defs>
    <g id="Nolan's-Logo" stroke="none" stroke-width="1" fill="none" fill-rule="evenodd">
        <g id="Artboard" transform="translate(-148.000000, -69.000000)">
            <g id="iconfinder_coffee-heart_2903268" transform="translate(148.000000, 69.000000)">
                <g id="coffee-heart-label" fill="#FB8C00">
                    <path d="M505,0 C226.106,0 0,226.1255 0,504.9805 C0,783.8945 226.106,1010 505,1010 C783.875,1010 1010,783.8945 1010,504.9805 C1010,226.1255 783.875,0 505,0 Z" id="Path"></path>
                </g>
                <g id="iconfinder_addiction_Coffee_1_3122405" transform="translate(191.000000, 243.000000)">
                    <path d="M629,210 C629,175.905762 601.998251,157.5 576.583333,157.5 C556.568766,157.5 539.523112,164.982148 524.008303,174.973297 C524.016302,173.470458 524.166667,172.137451 524.166667,170.625 C524.166667,163.370361 518.305624,157.5 511.0625,157.5 L65.5208333,157.5 C58.2777096,157.5 52.4166667,163.370361 52.4166667,170.625 C52.4166667,300.154265 83.5198675,392.375335 144.449764,446.25 L13.1041667,446.25 C5.86104297,446.25 0,452.120361 0,459.375 C0,495.558472 29.3947949,525 65.5208333,525 L511.0625,525 C547.188538,525 576.583333,495.558472 576.583333,459.375 C576.583333,452.120361 570.72229,446.25 563.479167,446.25 L432.13357,446.25 C465.013958,417.175369 489.153971,376.875915 504.390443,325.539094 C595.890863,286.192932 629,238.99292 629,210 Z M522.803781,208.130265 C539.767856,194.960404 556.848702,183.75 576.583333,183.75 C586.321878,183.75 602.791667,189.274291 602.791667,210 C602.791667,221.800002 585.637238,257.723923 512.203037,293.285751 C517.667372,267.256852 521.239345,238.911209 522.803781,208.130265 Z" id="Shape" fill="#303C42" fill-rule="nonzero"></path>
                    <path d="M510.882147,499.5 L65.5760873,499.5 C48.5010753,499.5 33.9329583,488.214842 28.522673,472.5 L547.935561,472.5 C542.525276,488.214842 527.957159,499.5 510.882147,499.5 Z" id="Path" fill="#8B572A"></path>
                    <path d="M524.288869,472.5 C517.094902,480.621092 507.012469,486 495.527391,486 L50.0579491,486 C43.8683844,486 38.2402003,484.113097 33.026253,481.47638 C40.1002684,492.255617 51.850843,499.5 65.3991096,499.5 L510.868552,499.5 C527.949829,499.5 542.523291,488.214842 547.935561,472.5 L524.288869,472.5 Z" id="Path" fill="#000000" opacity="0.1"></path>
                    <path d="M388.711511,447 L189.247919,447 C118.783276,405.160857 81.8124755,317.030136 79.5632458,184.5 L498.396181,184.5 C496.146954,317.030136 459.176154,405.160857 388.711511,447 Z" id="Path" fill="#F8E71C"></path>
                    <path d="M470.096111,184.5 C465.417076,245.84079 452.302645,296.331665 430.631076,335.387832 C405.694912,380.32878 357.800887,407.625 306.413205,407.625 L142.613365,407.625 C155.915213,423.520157 171.225797,436.694825 188.617196,447 L388.487731,447 C459.096138,405.160857 496.142363,317.030136 498.396181,184.5 L470.096111,184.5 Z" id="Path" fill="#000000" opacity="0.1"></path>
                    <path d="M274.718377,118.8 C274.718377,126.096094 280.593408,132 287.853819,132 C295.114229,132 300.98926,126.096094 300.98926,118.8 C300.98926,111.375 303.836982,108.203906 310.276427,101.732812 C317.447044,94.526953 327.260143,84.6656237 327.260143,66 C327.260143,47.3343763 317.447044,37.473047 310.276427,30.2671882 C303.836982,23.7960941 300.98926,20.625 300.98926,13.2 C300.98926,5.90390592 295.114229,0 287.853819,0 C280.593408,0 274.718377,5.90390592 274.718377,13.2 C274.718377,31.8656237 284.531477,41.726953 291.702093,48.9328118 C298.141538,55.4039059 300.98926,58.575 300.98926,66 C300.98926,73.425 298.141538,76.5960941 291.702093,83.0671882 C284.531477,90.273047 274.718377,100.134376 274.718377,118.8 Z" id="Path" fill="#303C42"></path>
                    <path d="M157.625298,118.8 C157.625298,126.096094 163.500329,132 170.76074,132 C178.02115,132 183.896181,126.096094 183.896181,118.8 C183.896181,111.375 186.743903,108.203906 193.183348,101.732812 C200.353965,94.526953 210.167064,84.6656237 210.167064,66 C210.167064,47.3343763 200.353965,37.473047 193.183348,30.2671882 C186.743903,23.7960941 183.896181,20.625 183.896181,13.2 C183.896181,5.90390592 178.02115,0 170.76074,0 C163.500329,0 157.625298,5.90390592 157.625298,13.2 C157.625298,31.8656237 167.438398,41.726953 174.609014,48.9328118 C181.04846,55.4039059 183.896181,58.575 183.896181,66 C183.896181,73.425 181.04846,76.5960941 174.609014,83.0671882 C167.438398,90.273047 157.625298,100.134376 157.625298,118.8 Z" id="Path" fill="#303C42"></path>
                    <path d="M393.312649,118.8 C393.312649,126.096094 399.18768,132 406.448091,132 C413.708501,132 419.583532,126.096094 419.583532,118.8 C419.583532,111.375 422.431254,108.203906 428.870699,101.732812 C436.041316,94.526953 445.854415,84.6656237 445.854415,66 C445.854415,47.3343763 436.041316,37.473047 428.870699,30.2671882 C422.431254,23.7960941 419.583532,20.625 419.583532,13.2 C419.583532,5.90390592 413.708501,0 406.448091,0 C399.18768,0 393.312649,5.90390592 393.312649,13.2 C393.312649,31.8656237 403.125749,41.726953 410.296365,48.9328118 C416.735811,55.4039059 419.583532,58.575 419.583532,66 C419.583532,73.425 416.735811,76.5960941 410.296365,83.0671882 C403.125749,90.273047 393.312649,100.134376 393.312649,118.8 Z" id="Path" fill="#303C42"></path>
                    <path d="M629,210 C629,175.905762 601.998251,157.5 576.583333,157.5 C556.568766,157.5 539.523112,164.982148 524.008303,174.973297 C524.016302,173.470458 524.166667,172.137451 524.166667,170.625 C524.166667,163.370361 518.305624,157.5 511.0625,157.5 L65.5208333,157.5 C58.2777096,157.5 52.4166667,163.370361 52.4166667,170.625 C52.4166667,300.154265 83.5198675,392.375335 144.449764,446.25 L13.1041667,446.25 C5.86104297,446.25 0,452.120361 0,459.375 C0,495.558473 29.3947949,525 65.5208333,525 L511.0625,525 C547.188538,525 576.583333,495.558473 576.583333,459.375 C576.583333,452.120361 570.72229,446.25 563.479167,446.25 L432.13357,446.25 C465.013958,417.175369 489.153971,376.875915 504.390443,325.539094 C595.890863,286.192932 629,238.99292 629,210 Z M522.803781,208.130265 C539.767856,194.960404 556.848702,183.75 576.583333,183.75 C586.321878,183.75 602.791667,189.274291 602.791667,210 C602.791667,221.800002 585.637238,257.723923 512.203037,293.285751 C517.667372,267.256852 521.239345,238.911209 522.803781,208.130265 Z M275.1875,118.125 C275.1875,125.379639 281.048543,131.25 288.291667,131.25 C295.53479,131.25 301.395833,125.379639 301.395833,118.125 C301.395833,110.742188 304.236775,107.589111 310.660888,101.154784 C317.814432,93.989868 327.604167,84.184569 327.604167,65.625 C327.604167,47.065431 317.814432,37.260132 310.660888,30.0952155 C304.236775,23.660889 301.395833,20.5078125 301.395833,13.125 C301.395833,5.870361 295.53479,0 288.291667,0 C281.048543,0 275.1875,5.870361 275.1875,13.125 C275.1875,31.684569 284.977235,41.489868 292.130779,48.6547845 C298.554892,55.089111 301.395833,58.2421875 301.395833,65.625 C301.395833,73.0078125 298.554892,76.160889 292.130779,82.5952155 C284.977235,89.760132 275.1875,99.565431 275.1875,118.125 Z M157.25,118.125 C157.25,125.379639 163.111043,131.25 170.354167,131.25 C177.59729,131.25 183.458333,125.379639 183.458333,118.125 C183.458333,110.742188 186.299275,107.589111 192.723388,101.154784 C199.876932,93.989868 209.666667,84.184569 209.666667,65.625 C209.666667,47.065431 199.876932,37.260132 192.723388,30.0952155 C186.299275,23.660889 183.458333,20.5078125 183.458333,13.125 C183.458333,5.870361 177.59729,0 170.354167,0 C163.111043,0 157.25,5.870361 157.25,13.125 C157.25,31.684569 167.039735,41.489868 174.193279,48.6547845 C180.617392,55.089111 183.458333,58.2421875 183.458333,65.625 C183.458333,73.0078125 180.617392,76.160889 174.193279,82.5952155 C167.039735,89.760132 157.25,99.565431 157.25,118.125 Z M393.125,118.125 C393.125,125.379639 398.986043,131.25 406.229167,131.25 C413.47229,131.25 419.333333,125.379639 419.333333,118.125 C419.333333,110.742188 422.174275,107.589111 428.598388,101.154784 C435.751932,93.989868 445.541667,84.184569 445.541667,65.625 C445.541667,47.065431 435.751932,37.260132 428.598388,30.0952155 C422.174275,23.660889 419.333333,20.5078125 419.333333,13.125 C419.333333,5.870361 413.47229,0 406.229167,0 C398.986043,0 393.125,5.870361 393.125,13.125 C393.125,31.684569 402.914735,41.489868 410.068279,48.6547845 C416.492392,55.089111 419.333333,58.2421875 419.333333,65.625 C419.333333,73.0078125 416.492392,76.160889 410.068279,82.5952155 C402.914735,89.760132 393.125,99.565431 393.125,118.125 Z" id="Shape" fill="url(#linearGradient-1)" fill-rule="nonzero"></path>
                </g>
            </g>
        </g>
    </g>
</svg>